<svg xmlns="http://www.w3.org/2000/svg" height="24" viewBox="0 96 960 960" width="24"><path d="m480 972-74-68Q296 803 226.5 732.5T117 608q-40-54-54.5-99.5T48 414q0-105 72-176.5T298 166q48 0 96 19.5t86 54.5q38-35 86-54.5t96-19.5q106 0 178 71.5T912 414q0 49-14.5 94.5T843 608q-40 54-109.5 124.5T554 904l-74 68Zm0-144q98-89 161-151.5t100-109q37-46.5 51-82t14-71.5q0-61-40.5-101.5T662 272q-45 0-86 27t-46 59H430q-5-32-46-59t-86-27q-63 0-103.5 40.5T154 414q0 36 14 71.5t51 82q37 46.5 100 109T480 828Zm0-278Z"/></svg>