<svg xmlns="http://www.w3.org/2000/svg" height="24" viewBox="0 96 960 960" width="24"><path d="M725.176 994Q669 994 629.5 954.917 590 915.833 590 860q0-6.5 1-13.464 1-6.965 3-12.536L322 678q-18 15-40.5 22.5T236 708q-56.667 0-96.333-39.118-39.667-39.117-39.667-95Q100 518 139.667 479q39.666-39 96.333-39 23 0 45.5 7.5T322 470l272-156.022q-2-5.708-3-12.843T590 288q0-55.833 39.323-94.917Q668.647 154 724.824 154 781 154 820.5 193.118q39.5 39.117 39.5 95Q860 344 820.333 383 780.667 422 724 422q-23 0-45.5-7.5T638 392L366 548q2 5.571 3 12.536 1 6.964 1 13.464t-1 13.464q-1 6.965-3 12.536l272 156q18-15 40.5-22.5T724 726q56.667 0 96.333 39.118 39.667 39.117 39.667 95Q860 916 820.677 955q-39.324 39-95.501 39Zm-.404-678q12.228 0 20.728-8.272 8.5-8.272 8.5-20.5t-8.272-20.728q-8.272-8.5-20.5-8.5t-20.728 8.272q-8.5 8.272-8.5 20.5t8.272 20.728q8.272 8.5 20.5 8.5Zm-490 286q12.228 0 20.728-8.272 8.5-8.272 8.5-20.5t-8.272-20.728q-8.272-8.5-20.5-8.5t-20.728 8.272q-8.5 8.272-8.5 20.5t8.272 20.728q8.272 8.5 20.5 8.5Zm490 286q12.228 0 20.728-8.272 8.5-8.272 8.5-20.5t-8.272-20.728q-8.272-8.5-20.5-8.5t-20.728 8.272q-8.5 8.272-8.5 20.5t8.272 20.728q8.272 8.5 20.5 8.5ZM725 287ZM235 573Zm490 286Z"/></svg>