<svg xmlns="http://www.w3.org/2000/svg" height="48" viewBox="0 96 960 960" width="48"><path d="M727.118 997q-55.701 0-95.91-40.43Q591 916.14 591 862.055q0-7.707 2-18.549 2-10.842 4-20.297L330.288 667Q311 687 286.654 699.5T234.448 712q-54.937 0-95.192-40.368Q99 631.265 99 575.882q0-55.382 40.256-95.132Q179.511 441 234.448 441q27.506 0 51.529 10.5Q310 462 330 482l267-154.292q-2-6.936-4-18.129-2-11.192-2-18.965 0-54.947 40.091-94.781Q671.181 156 726.882 156q54.618 0 94.868 39.868Q862 235.735 862 291.118q0 55.382-40.255 95.132Q781.489 426 726.552 426q-29.213 0-52.459-7.969-23.246-7.969-41.381-28.031L365 536.209q2 8.741 3.5 20.94 1.5 12.199 1.5 19.092 0 6.894-1.5 16.352-1.5 9.457-3.5 18.198L632.712 761q18.135-16.062 40.558-25.531Q695.692 726 726.552 726q54.937 0 95.193 40.368Q862 806.735 862 862.118q0 54.382-40.132 94.632Q781.735 997 727.118 997Z"/></svg>